<?xml version="1.0" encoding="UTF-8"?><svg xmlns="http://www.w3.org/2000/svg" viewBox="0 0 1.88 1.88"><defs><style>.d{fill:#fff;}.e{fill:#0096ff;}</style></defs><g id="a"/><g id="b"><g id="c"><g><circle class="e" cx=".94" cy=".94" r=".94"/><g><path class="d" d="M.94,1.28c-.39,0-.69-.15-.69-.34s.3-.34,.69-.34,.69,.15,.69,.34-.3,.34-.69,.34ZM.94,.66c-.34,0-.63,.13-.63,.28s.29,.28,.63,.28,.63-.13,.63-.28-.29-.28-.63-.28Z"/><path class="d" d="M.94,1.13c-.11,0-.19-.09-.19-.19s.09-.19,.19-.19,.19,.09,.19,.19-.09,.19-.19,.19Zm0-.32c-.07,0-.13,.06-.13,.13s.06,.13,.13,.13,.13-.06,.13-.13-.06-.13-.13-.13Z"/></g></g></g></g></svg>