<?xml version="1.0" encoding="UTF-8"?><svg xmlns="http://www.w3.org/2000/svg" viewBox="0 0 1.19 1.45"><defs><style>.d{fill:#fff;}</style></defs><g id="a"/><g id="b"><g id="c"><g><path class="d" d="M.39,1.45s-.05-.02-.07-.04c-.03-.03-.04-.06-.05-.09,0,0,0-.02,0-.02,0-.19,0-.39,0-.58v-.02h.1v.02c0,.19,0,.39,0,.58,0,0,0,.02,0,.02,0,.01,.02,.02,.04,.02,.21,0,.42,0,.63,0,.02,0,.04-.02,.04-.04,0-.13,0-.26,0-.4,0-.18,0-.35,0-.53,0-.03-.01-.05-.05-.05-.11,0-.21,0-.32,0h-.01l-.02-.1h.01c.11,0,.22,0,.33,0,.09,0,.15,.06,.15,.15,0,.31,0,.62,0,.92,0,.07-.05,.13-.12,.15H.39Z"/><path class="d" d="M.66,.33c0,.18-.15,.33-.33,.33C.15,.66,0,.51,0,.33,0,.15,.15,0,.33,0c.18,0,.33,.15,.33,.33Zm-.33,.26c.14,0,.26-.12,.26-.26,0-.14-.12-.26-.26-.26-.14,0-.26,.12-.26,.26,0,.14,.12,.26,.26,.26Z"/><path class="d" d="M.74,.72c-.06,0-.12,0-.18,0,0,0-.02,0-.03-.01-.02-.02-.01-.05,.01-.06h.02c.12,0,.24,0,.37,0,0,0,.01,0,.02,0,.02,0,.02,.02,.02,.04,0,.02-.02,.03-.04,.03-.05,0-.09,0-.14,0-.02,0-.03,0-.05,0Z"/><path class="d" d="M.74,.86c.06,0,.12,0,.19,0,.02,0,.03,.01,.04,.03,0,.02,0,.03-.02,.04,0,0-.01,0-.02,0-.12,0-.24,0-.37,0-.02,0-.03,0-.04-.02,0-.01,0-.03,0-.04,0,0,.02-.01,.03-.01,.06,0,.12,0,.18,0Z"/><path class="d" d="M.74,1.08c.06,0,.12,0,.19,0,.02,0,.03,.01,.03,.03,0,.02,0,.03-.02,.04,0,0-.01,0-.02,0-.12,0-.25,0-.37,0-.02,0-.04-.01-.04-.03,0-.02,.02-.03,.04-.04,.06,0,.12,0,.19,0H.74Z"/><path class="d" d="M.36,.29s.01,0,.02,0c.05,0,.09,0,.14,0,.02,0,.04,.01,.04,.03,0,.02-.01,.04-.04,.04-.06,0-.13,0-.19,0-.02,0-.04-.01-.04-.04,0-.05,0-.11,0-.16,0-.02,.01-.04,.03-.04,.02,0,.04,.02,.04,.04,0,.04,0,.08,0,.12,0,0,0,.01,0,.02Z"/></g></g></g></svg>