<?xml version="1.0" encoding="UTF-8"?><svg xmlns="http://www.w3.org/2000/svg" viewBox="0 0 1.1 .98"><defs><style>.d{fill:#fff;}</style></defs><g id="a"/><g id="b"><g id="c"><g><path class="d" d="M.49,.78s0-.03,.01-.04c0,0,.02-.01,.04-.01s.03,0,.04,.01,.01,.02,.01,.04,0,.03-.01,.04c0,0-.02,.01-.04,.01s-.03,0-.04-.01c0,0-.01-.02-.01-.04Zm.09-.48v.16s0,.07,0,.1v.09h-.03s-.01,0-.02,0c0,0,0,0,0-.02,0-.02,0-.04,0-.07,0-.03,0-.06,0-.1v-.19s.02-.01,.04-.01c.01,0,.02,0,.03,0,0,0,0,.02,0,.03Z"/><path class="d" d="M.97,.98H.13s-.09-.02-.11-.06S0,.83,.02,.79L.44,.06s.07-.06,.11-.06,.09,.02,.11,.06l.42,.73s.02,.09,0,.13-.07,.06-.11,.06ZM.5,.1L.08,.83s-.01,.04,0,.06,.03,.03,.05,.03H.97s.04-.01,.05-.03c.01-.02,.01-.04,0-.06L.6,.1s-.08-.04-.1,0H.5Z"/></g></g></g></svg>