<?xml version="1.0" encoding="UTF-8"?><svg xmlns="http://www.w3.org/2000/svg" viewBox="0 0 .94 1.12"><defs><style>.d{fill:#fff;}</style></defs><g id="a"/><g id="b"><g id="c"><path class="d" d="M.1,1.12c-.06,0-.1-.05-.1-.1V.12c0-.06,.05-.12,.12-.12h.11c.06,0,.12,.05,.12,.12V.88c0,.13-.11,.24-.24,.24ZM.12,.06s-.06,.03-.06,.06v.91s.02,.05,.05,.05c.1,0,.19-.08,.19-.19V.12s-.03-.06-.06-.06H.12Z"/><path class="d" d="M.31,.31H.03s-.03-.01-.03-.03,.01-.03,.03-.03H.31s.03,.01,.03,.03-.01,.03-.03,.03Z"/><path class="d" d="M.92,1.12H.44s-.03-.01-.03-.03V.03s.01-.03,.03-.03h.48s.03,.01,.03,.03V1.1s-.01,.03-.03,.03Zm-.45-.06h.42V.06H.46V1.07Z"/><path class="d" d="M.75,.21H.44s-.03-.01-.03-.03,.01-.03,.03-.03h.31s.03,.01,.03,.03-.01,.03-.03,.03Z"/><path class="d" d="M.68,.37h-.24s-.03-.01-.03-.03,.01-.03,.03-.03h.24s.03,.01,.03,.03-.01,.03-.03,.03Z"/><path class="d" d="M.75,.52H.44s-.03-.01-.03-.03,.01-.03,.03-.03h.31s.03,.01,.03,.03-.01,.03-.03,.03Z"/><path class="d" d="M.68,.67h-.24s-.03-.01-.03-.03,.01-.03,.03-.03h.24s.03,.01,.03,.03-.01,.03-.03,.03Z"/><path class="d" d="M.75,.82H.44s-.03-.01-.03-.03,.01-.03,.03-.03h.31s.03,.01,.03,.03-.01,.03-.03,.03Z"/><path class="d" d="M.68,.97h-.24s-.03-.01-.03-.03,.01-.03,.03-.03h.24s.03,.01,.03,.03-.01,.03-.03,.03Z"/></g></g></svg>