<?xml version="1.0" encoding="UTF-8"?><svg xmlns="http://www.w3.org/2000/svg" viewBox="0 0 1.88 1.88"><defs><style>.d{fill:#fff;}.e{fill:#203a4a;}</style></defs><g id="a"/><g id="b"><g id="c"><g><circle class="e" cx=".94" cy=".94" r=".94"/><path class="d" d="M.55,1.52c-.06,0-.1-.05-.1-.1V.51c0-.06,.05-.12,.12-.12h.11c.06,0,.12,.05,.12,.12v.77c0,.13-.11,.24-.24,.24Zm.02-1.07s-.06,.03-.06,.06v.91s.02,.05,.05,.05c.1,0,.19-.08,.19-.19V.51s-.03-.06-.06-.06h-.11Z"/><path class="d" d="M.76,.7H.47s-.03-.01-.03-.03,.01-.03,.03-.03h.29s.03,.01,.03,.03-.01,.03-.03,.03Z"/><path class="d" d="M1.36,1.52h-.48s-.03-.01-.03-.03V.42s.01-.03,.03-.03h.48s.03,.01,.03,.03V1.49s-.01,.03-.03,.03Zm-.45-.06h.42V.45h-.42V1.46Z"/><path class="d" d="M1.19,.61h-.31s-.03-.01-.03-.03,.01-.03,.03-.03h.31s.03,.01,.03,.03-.01,.03-.03,.03Z"/><path class="d" d="M1.12,.76h-.24s-.03-.01-.03-.03,.01-.03,.03-.03h.24s.03,.01,.03,.03-.01,.03-.03,.03Z"/><path class="d" d="M1.19,.91h-.31s-.03-.01-.03-.03,.01-.03,.03-.03h.31s.03,.01,.03,.03-.01,.03-.03,.03Z"/><path class="d" d="M1.12,1.06h-.24s-.03-.01-.03-.03,.01-.03,.03-.03h.24s.03,.01,.03,.03-.01,.03-.03,.03Z"/><path class="d" d="M1.19,1.21h-.31s-.03-.01-.03-.03,.01-.03,.03-.03h.31s.03,.01,.03,.03-.01,.03-.03,.03Z"/><path class="d" d="M1.12,1.36h-.24s-.03-.01-.03-.03,.01-.03,.03-.03h.24s.03,.01,.03,.03-.01,.03-.03,.03Z"/></g></g></g></svg>