<?xml version="1.0" encoding="UTF-8"?><svg xmlns="http://www.w3.org/2000/svg" viewBox="0 0 1.88 1.88"><defs><style>.d{fill:#f26f21;}.e{fill:#fff;}</style></defs><g id="a"/><g id="b"><g id="c"><g><circle class="d" cx=".94" cy=".94" r=".94"/><g><path class="e" d="M1.28,1.44H.6c-.09,0-.16-.07-.16-.16V.6c0-.09,.07-.16,.16-.16h.68c.09,0,.16,.07,.16,.16v.68c0,.09-.07,.16-.16,.16ZM.6,.5c-.06,0-.1,.05-.1,.1v.68c0,.06,.05,.1,.1,.1h.68c.06,0,.1-.05,.1-.1V.6c0-.06-.05-.1-.1-.1H.6Z"/><g><path class="e" d="M1.3,.75h-.48s-.02-.01-.02-.02,.01-.02,.02-.02h.48s.02,.01,.02,.02-.01,.02-.02,.02Z"/><path class="e" d="M.63,.79s-.01,0-.02,0l-.04-.05s0-.02,0-.03c.01,0,.03,0,.03,0l.03,.03,.09-.08s.02,0,.03,0c0,0,0,.02,0,.03l-.11,.09s0,0-.02,0Z"/></g><g><path class="e" d="M1.3,.99h-.48s-.02-.01-.02-.02,.01-.02,.02-.02h.48s.02,.01,.02,.02-.01,.02-.02,.02Z"/><path class="e" d="M.63,1.03s-.01,0-.02,0l-.04-.05s0-.02,0-.03c.01,0,.03,0,.03,0l.03,.03,.09-.08s.02,0,.03,0c0,0,0,.02,0,.03l-.11,.1s0,0-.02,0Z"/></g><g><path class="e" d="M1.3,1.23h-.48s-.02-.01-.02-.02,.01-.02,.02-.02h.48s.02,.01,.02,.02-.01,.02-.02,.02Z"/><path class="e" d="M.63,1.27s-.01,0-.02,0l-.04-.05s0-.02,0-.03c.01,0,.03,0,.03,0l.03,.03,.09-.08s.02,0,.03,0c0,0,0,.02,0,.03l-.11,.09s0,0-.02,0Z"/></g></g></g></g></g></svg>