<svg xmlns="http://www.w3.org/2000/svg" xmlns:xlink="http://www.w3.org/1999/xlink" viewBox="0 0 1.49 2.23"><defs><style>.e{fill:url(#d);}.f{fill:#203a4a;}</style><linearGradient id="d" x1=".27" y1="1.29" x2="1.22" y2="1.29" gradientTransform="matrix(1, 0, 0, 1, 0, 0)" gradientUnits="userSpaceOnUse"><stop offset="0" stop-color="#ff5c00"/><stop offset="1" stop-color="#c80000"/></linearGradient></defs><g id="a"/><g id="b"><g id="c"><g><path class="f" d="M.75,2.23l-.61-.04h0c-.13-.03-.15-.06-.13-.19,0-.01,.02-.03,.03-.03,.03-.01,.04-.03,.04-.06,0-.07,.01-.14,.03-.2,.02-.12,.08-.23,.17-.31,.07-.07,.15-.13,.22-.2,.08-.07,.08-.09,0-.16-.06-.06-.12-.11-.18-.16C.16,.73,.09,.55,.08,.36c0-.02,0-.04,0-.06,0-.02-.02-.04-.03-.04C.01,.24,0,.22,0,.18c0-.01,0-.03,0-.04,0-.07,0-.08,.07-.1C.18,.02,.28,0,.38,0c.27,0,.55,0,.82,0,.08,0,.16,.03,.23,.04,.04,0,.06,.03,.05,.07,0,.02,0,.04,0,.05,0,.04-.01,.07-.05,.08-.01,0-.02,.02-.02,.04,0,.07-.01,.14-.02,.21-.02,.14-.09,.25-.19,.34-.06,.06-.12,.11-.18,.16-.1,.09-.1,.11,0,.2,.04,.04,.09,.08,.13,.12,.18,.15,.26,.35,.26,.58,0,.03,0,.05,.04,.06,.02,0,.04,.03,.03,.06,0,.02,0,.04,0,.06,0,.06,0,.07-.06,.09-.09,.02-.17,.04-.26,.04-.14,0-.28,0-.41,0v.02ZM.2,1.93c0,.06,.04,.09,.09,.1h.04c.22,.05,.44,.04,.67,.03,.07,0,.15-.02,.22-.04,.03,0,.05-.03,.07-.05,.01-.01,.02-.03,.04-.05,0-.19-.05-.36-.21-.49-.08-.07-.15-.14-.22-.21-.06-.06-.06-.14,0-.2,.03-.03,.05-.05,.08-.08,.07-.07,.15-.14,.22-.22,.11-.12,.13-.27,.13-.42-.39,.03-.78,.04-1.17,0-.02,.17,.04,.34,.16,.46,.08,.08,.17,.16,.26,.24,.08,.08,.08,.15,0,.23-.07,.07-.14,.13-.21,.2-.15,.13-.2,.3-.2,.5h.04Z"/><path class="e" d="M.27,1.94c.04-.05,.07-.1,.1-.14,.09-.11,.2-.21,.32-.29,.02-.01,.03-.03,.03-.06,0-.16,0-.32,0-.48,0-.03,0-.04-.03-.06-.09-.07-.18-.13-.25-.23-.02-.02-.05-.05-.03-.08,.02-.03,.06-.01,.08,0,.17,.03,.34,.03,.52,0,.02,0,.05,0,.06,.01,0,.01,0,.04,0,.06-.05,.08-.12,.14-.19,.19-.08,.05-.11,.11-.1,.21,0,.12,0,.25,0,.38,0,.03,0,.04,.03,.06,.15,.1,.28,.23,.39,.38,.04,.05,.03,.06-.03,.07-.19,.03-.37,.04-.56,.03-.09,0-.19-.02-.28-.03-.02,0-.03,0-.06-.02Z"/></g></g></g></svg>
